:version 1.10
:name ASF
:units
  mass 1
  length 1
  angle deg
:documentation
  ASF file generated by Kaydara
:root
  axis xyz
  order  tx ty tz rx ry rz
  position 0 0 0
  orientation 0 0 0
:bonedata
  begin
    id 1
    name RightUpLegDummy
    direction -0.718183 -0.695806 0.00816078
    length 4.904
    axis 0 0 0 xyz
  end
  begin
    id 2
    name RightUpLeg
    direction 3.53989e-006 -0.995788 0.0916897
    length 17.4976
    axis -3.49089 -0.000906621 0.000287158 xyz
    dof rx ry rz
  end
  begin
    id 3
    name RightLeg
    direction 0.00371093 -0.995096 -0.0988418
    length 16.5821
    axis 3.68512 0.0193738 -0.131023 xyz
    dof rx ry rz
  end
  begin
    id 4
    name RightFoot
    direction 0.000791514 -0.46099 0.887405
    length 3.77069
    axis 4.84075e-005 -0.120479 -0.188788 xyz
    dof rx ry rz
  end
  begin
    id 5
    name RightToes
    direction 0.00124746 -0.014064 0.9999
    length 3.85082
    axis 0.00048216 0.542163 -0.142577 xyz
    dof rx ry rz
  end
  begin
    id 6
    name SpineDummy
    direction 8.3039e-015 1 4.57515e-016
    length 4.6813
    axis 0 0 0 xyz
  end
  begin
    id 7
    name Spine
    direction -4.63632e-008 0.999988 0.00495137
    length 10.1015
    axis -0.00138897 0.000121419 3.25764e-006 xyz
    dof rx ry rz
  end
  begin
    id 8
    name Spine1
    direction 0 0 0
    length 0
    axis -0.00138896 0.000121452 2.39764e-006 xyz
    dof rx ry rz
  end
  begin
    id 9
    name HEadDummy
    direction -3.91456e-008 0.999999 0.00127422
    length 3.43865
    axis -0.00138896 0.000121452 2.39764e-006 xyz
  end
  begin
    id 10
    name HEad
    direction -0.0222688 0.980941 0.193023
    length 5.12695
    axis -0.00138895 0.000121452 2.39764e-006 xyz
    dof rx ry rz
  end
  begin
    id 11
    name LeftShoulder1Dummy
    direction 0.998891 -0.0402508 -0.0244456
    length 3.5433
    axis -0.00138896 0.000121452 2.39764e-006 xyz
  end
  begin
    id 12
    name LeftShoulder1
    direction 0.99951 -0.000327743 0.0313091
    length 4.05031
    axis -0.00138896 0.000121452 2.39764e-006 xyz
    dof rx ry rz
  end
  begin
    id 13
    name LeftArm
    direction 0.998561 -0.00100054 -0.0536182
    length 10.3537
    axis -23.1894 0.134784 0.96751 xyz
    dof rx ry rz
  end
  begin
    id 14
    name LeftForeArm
    direction 0.998903 0.00866434 0.046012
    length 8.70632
    axis -9.91835 -0.06569 -0.177792 xyz
    dof rx ry rz
  end
  begin
    id 15
    name LeftHand
    direction 0.992938 -0.0411636 0.11126
    length 5.32135
    axis -0.00960227 -0.00340091 0.185174 xyz
    dof rx ry rz
  end
  begin
    id 16
    name RightShoulderDummy
    direction -0.998891 -0.0402509 -0.0244414
    length 3.5433
    axis -0.00138896 0.000121452 2.39764e-006 xyz
  end
  begin
    id 17
    name RightShoulder
    direction -0.99951 -0.000327827 0.0313133
    length 4.05031
    axis 0.215806 0.000203644 -0.00680151 xyz
    dof rx ry rz
  end
  begin
    id 18
    name RightArm
    direction -0.998573 -0.000999583 -0.053403
    length 10.3947
    axis -23.2009 -0.134239 -0.9641 xyz
    dof rx ry rz
  end
  begin
    id 19
    name RightForeArm
    direction -0.998898 0.00868026 0.0461306
    length 8.68355
    axis -9.92322 0.0658061 0.178869 xyz
    dof rx ry rz
  end
  begin
    id 20
    name RightHand
    direction -0.992843 -0.0414603 0.112003
    length 5.28593
    axis -0.00960634 0.00330671 -0.185226 xyz
    dof rx ry rz
  end
  begin
    id 21
    name LeftUpLegDummy
    direction 0.718183 -0.695806 0.00816078
    length 4.904
    axis 0 0 0 xyz
  end
  begin
    id 22
    name LeftUpLeg
    direction -6.8115e-006 -0.995793 0.0916336
    length 17.4976
    axis -3.48766 0.00143441 -0.000523914 xyz
    dof rx ry rz
  end
  begin
    id 23
    name LeftLeg
    direction -0.00601357 -0.995091 -0.0987824
    length 16.5821
    axis 3.68177 -0.00654038 -0.00028478 xyz
    dof rx ry rz
  end
  begin
    id 24
    name LeftFoot
    direction -0.00417578 -0.460984 0.887399
    length 3.77069
    axis 1.87232e-006 4.66002e-005 -8.1837e-006 xyz
    dof rx ry rz
  end
  begin
    id 25
    name LeftToes
    direction 0.00818058 -0.00485161 0.999955
    length 3.85048
    axis 1.06246e-005 4.65855e-005 -8.18502e-006 xyz
    dof rx ry rz
  end
:hierarchy
  begin
    root RightUpLegDummy SpineDummy LeftUpLegDummy
    RightUpLegDummy RightUpLeg
    RightUpLeg RightLeg
    RightLeg RightFoot
    RightFoot RightToes
    SpineDummy Spine
    Spine Spine1
    Spine1 HEadDummy LeftShoulder1Dummy RightShoulderDummy
    HEadDummy HEad
    LeftShoulder1Dummy LeftShoulder1
    LeftShoulder1 LeftArm
    LeftArm LeftForeArm
    LeftForeArm LeftHand
    RightShoulderDummy RightShoulder
    RightShoulder RightArm
    RightArm RightForeArm
    RightForeArm RightHand
    LeftUpLegDummy LeftUpLeg
    LeftUpLeg LeftLeg
    LeftLeg LeftFoot
    LeftFoot LeftToes
  end

:SAMPLES-PER-SECOND 30
:FRAME-RANGE 1-1770
:FULLY-SPECIFIED
:DEGREES
1
root  37.9031 39.7578 42.129 -179.875 40.0851 178.098
RightUpLeg  -8.20514 -4.90875 -0.674367
RightLeg  14.9301 1.13521 0.642159
RightFoot  -8.2383 -0.0969788 1.51623
RightToes  -1.33073e-015 0 -3.6325e-017
Spine  -5.4765 -0.697548 1.99817
Spine1  6.6303 -0.76798 0.641768
HEad  -9.4852 19.0434 -7.47886
LeftShoulder1  -0.394875 4.58694 -24.7379
LeftArm  -7.68185 12.1945 -47.1207
LeftForeArm  26.48 1.92301 -10.29
LeftHand  -0.0217659 5.38423 7.57672
RightShoulder  0.614224 -1.22772 23.0884
RightArm  -30.5481 -5.39202 46.6428
RightForeArm  60.9425 -5.21915 1.03254
RightHand  -0.0731993 -5.08725 -26.2433
LeftUpLeg  -11.0725 9.30852 4.2364
LeftLeg  30.1384 11.33 7.36486
LeftFoot  -9.21604 0.178412 -6.63875
LeftToes  1.09107e-011 -1.16422e-010 2.98337e-011
2
root  38.141 39.7791 42.1282 179.92 38.5609 177.68
RightUpLeg  -7.87674 -5.18267 -0.786068
RightLeg  14.996 -0.169053 0.313441
RightFoot  -8.54712 -0.0877953 1.22236
RightToes  -1.33073e-015 0 -3.6325e-017
Spine  -5.37024 -0.396583 2.18197
Spine1  6.6503 -0.406245 0.252062
HEad  -8.8883 18.0659 -7.27059
LeftShoulder1  -0.171573 3.85891 -24.8853
LeftArm  -7.14255 10.041 -47.3011
LeftForeArm  26.6601 2.26413 -10.4576
LeftHand  -0.0179143 5.50583 7.78533
RightShoulder  0.792992 -0.664588 23.687
RightArm  -29.4735 -2.21968 45.7815
RightForeArm  63.1447 -5.19146 1.32081
RightHand  -0.0306455 -5.27375 -26.5661
LeftUpLeg  -11.9318 9.55336 3.82362
LeftLeg  27.4859 10.7148 6.32696
LeftFoot  -8.69694 0.20144 -6.46676
LeftToes  1.09107e-011 -1.16422e-010 2.98337e-011
3
root  38.3716 39.8126 42.1136 179.625 37.373 177.216
RightUpLeg  -7.30241 -5.44673 -0.988317
RightLeg  14.6152 -1.10392 0.128935
RightFoot  -8.74912 -0.081582 0.9832
RightToes  -1.33073e-015 0 -3.6325e-017
Spine  -5.42576 -0.062157 2.25754
Spine1  6.92183 0.00376887 -0.185052
HEad  -8.34495 17.5188 -7.23556
LeftShoulder1  -0.0501992 3.46602 -24.9092
LeftArm  -6.71943 8.03608 -47.6038
LeftForeArm  27.2179 2.26947 -10.582
LeftHand  -0.0164258 5.46204 7.82229
RightShoulder  0.987555 -0.0215938 23.8086
RightArm  -29.5322 0.895818 45.8225
RightForeArm  65.3695 -5.0562 0.995724
RightHand  0.0156836 -5.47391 -26.5805
LeftUpLeg  -12.2792 9.34973 3.61036
LeftLeg  24.1645 10.3211 5.35222
LeftFoot  -7.4765 0.255918 -6.25386
LeftToes  1.09107e-011 -1.16422e-010 2.98337e-011
4
root  38.583 39.8644 42.0816 179.339 36.5648 176.747
RightUpLeg  -6.70731 -5.5774 -1.21711
RightLeg  14.1312 -1.81281 -0.00895965
RightFoot  -8.81726 -0.0788399 0.86463
RightToes  -1.33073e-015 0 -3.6325e-017
Spine  -5.51052 0.374054 2.46433
Spine1  7.16855 0.566408 -0.807985
HEad  -7.6563 17.3419 -6.97962
LeftShoulder1  0.0802963 3.04412 -24.9403
LeftArm  -6.11717 6.19854 -47.7242
LeftForeArm  27.6271 2.1499 -10.774
LeftHand  -0.0160518 5.46519 7.92316
RightShoulder  1.14724 0.510479 23.843
RightArm  -30.0869 3.88022 46.2764
RightForeArm  67.0317 -4.88748 0.365929
RightHand  0.0703702 -5.70808 -26.6982
LeftUpLeg  -12.268 9.51875 3.62244
LeftLeg  20.2861 9.46857 4.17673
LeftFoot  -5.73694 0.318958 -5.81122
LeftToes  1.09107e-011 -1.16422e-010 2.98337e-011
5
root  38.7759 39.92 42.03 179.061 35.9771 176.255
RightUpLeg  -6.07662 -5.5817 -1.48356
RightLeg  13.4931 -2.43406 -0.12506
RightFoot  -8.81938 -0.0766283 0.76443
RightToes  -1.33073e-015 0 -3.6325e-017
Spine  -5.51068 0.738534 2.59563
Spine1  7.17025 1.0466 -1.36202
HEad  -6.97173 17.6138 -6.8023
LeftShoulder1  0.123403 2.90616 -25.0541
LeftArm  -5.67656 4.68877 -47.6793
LeftForeArm  28.033 1.9633 -10.897
LeftHand  -0.0161653 5.41603 7.97105
RightShoulder  1.318 1.09773 23.7399
RightArm  -30.5384 6.75174 46.9127
RightForeArm  67.8886 -4.75671 -0.210533
RightHand  0.110297 -5.87742 -26.7923
LeftUpLeg  -11.9529 8.72474 3.82202
LeftLeg  16.0175 9.33052 3.23497
LeftFoot  -3.77459 0.416262 -5.94984
LeftToes  1.09107e-011 -1.16422e-010 2.98337e-011
6
root  38.9473 39.9794 41.9478 178.871 35.406 175.8
RightUpLeg  -5.52865 -5.61543 -1.78828
RightLeg  12.908 -2.97288 -0.19704
RightFoot  -8.78663 -0.0764977 0.758696
RightToes  -1.33073e-015 0 -3.6325e-017
Spine  -5.63011 1.04971 2.74518
Spine1  7.19222 1.45957 -1.84688
HEad  -6.24471 18.2405 -7.18092
LeftShoulder1  0.178487 2.73139 -25.2071
LeftArm  -5.61064 3.58334 -47.5745
LeftForeArm  28.4963 1.67821 -10.8985
LeftHand  -0.0168236 5.472 8.06233
RightShoulder  1.42143 1.47869 23.5241
RightArm  -31.0346 9.24724 47.9385
RightForeArm  68.5033 -4.63096 -0.807419
RightHand  0.10738 -5.86546 -26.7694
LeftUpLeg  -11.6521 7.5072 4.30443
LeftLeg  12.0051 9.28117 2.10129
LeftFoot  -1.83636 0.524448 -6.17302
LeftToes  1.09107e-011 -1.16422e-010 2.98337e-011
7
root  39.1037 40.046 41.8524 178.822 34.6192 175.482
RightUpLeg  -4.84833 -5.47491 -1.99493
RightLeg  12.0139 -3.91996 -0.320846
RightFoot  -8.63572 -0.0783741 0.838827
RightToes  -1.33073e-015 0 -3.6325e-017
Spine  -5.72251 1.19874 2.80612
Spine1  7.09496 1.66251 -2.15373
HEad  -5.55976 19.0935 -7.47331
LeftShoulder1  0.214444 2.62096 -25.4399
LeftArm  -5.41752 2.7155 -47.2921
LeftForeArm  28.5219 1.40885 -10.9362
LeftHand  -0.015263 5.47267 8.21381
RightShoulder  1.50111 1.80071 23.2057
RightArm  -30.4695 11.1284 49.0914
RightForeArm  68.0109 -4.67981 -0.632038
RightHand  0.104108 -5.84646 -26.9923
LeftUpLeg  -11.6132 5.68271 4.63688
LeftLeg  8.64614 9.85732 1.80122
LeftFoot  -0.658373 0.496867 -5.27099
LeftToes  1.09107e-011 -1.16422e-010 2.98337e-011
8
root  39.2171 40.0894 41.7491 178.823 33.7235 175.098
RightUpLeg  -4.50053 -5.41958 -2.28962
RightLeg  11.566 -4.84239 -0.524805
RightFoot  -8.66382 -0.0821834 1.00221
RightToes  -1.33073e-015 0 -3.6325e-017
Spine  -5.64556 1.29918 2.78534
Spine1  6.7347 1.80304 -2.37612
HEad  -4.93681 20.1044 -7.72497
LeftShoulder1  0.240099 2.54355 -25.6247
LeftArm  -5.39207 2.09686 -47.0744
LeftForeArm  28.7338 1.17811 -10.9306
LeftHand  -0.0190213 5.47945 8.1601
RightShoulder  1.55071 2.00062 23.0301
RightArm  -29.2094 12.6519 50.0829
RightForeArm  67.4488 -4.81588 0.0382829
RightHand  0.0631626 -5.67104 -27.0901
LeftUpLeg  -11.9505 4.77139 4.63313
LeftLeg  6.24633 9.81833 1.81508
LeftFoot  -0.038668 0.497695 -5.02661
LeftToes  1.09107e-011 -1.16422e-010 2.98337e-011
